# xmcd
#
# Track frame offsets:
#	150
#	9963
#	20743
#	29100
#	41315
#	52278
#	61228
#	72973
#	83148
#	90853
#	99083
#	111728
#
# Disc length: 1644 seconds
#
# Revision: 0
# Processed by: cddbd v1.4PL0 Copyright (c) Steve Scherf et al.
# Submitted via: EasyCDDAExtractor 4.5.0.2
#
DISCID=97066a0c
DTITLE=Johnny Cash
DYEAR=1900
DGENRE=Country
TTITLE0=Rock Island Line
TTITLE1=I Heard That Lonesome Whistle Blow
TTITLE2=Contry Boy
TTITLE3=I Walk The Line
TTITLE4=Cry Cry Cry
TTITLE5=Remember me i'm the one who love you
TTITLE6=I'm So Doggone Lonesome
TTITLE7=I Was There When it Happened
TTITLE8=If The Good Lord's Willing and Creek don't Rise
TTITLE9=The Wreck Of The Old' 97
TTITLE10=Folsom Prison Blues
TTITLE11=Doin' My Time
EXTD=
EXTT0=
EXTT1=
EXTT2=
EXTT3=
EXTT4=
EXTT5=
EXTT6=
EXTT7=
EXTT8=
EXTT9=
EXTT10=
EXTT11=
PLAYORDER=
